<svg width="39" height="38" viewBox="0 0 39 38" fill="none" xmlns="http://www.w3.org/2000/svg">
<g clip-path="url(#clip0_31_1401)">
<path d="M18.1315 36.2503C10.9506 34.2543 7.14036 32.9504 0.405513 30.1839C0.160663 30.0836 0.00195312 29.8482 0.00195312 29.5833V6.98921L0.273943 6.76442C0.443863 6.64229 0.663933 6.61161 0.862173 6.67828L18.063 12.724L17.6713 13.8373L1.18195 8.04177V29.2275C7.6631 31.8813 11.4367 33.1652 18.4471 35.1133L18.1315 36.2503Z" fill="white"/>
<path d="M18.1015 36.3199L17.8189 36.1311C17.6584 36.0072 17.5664 35.8208 17.5664 35.6184V13.3229C17.5664 13.045 17.7428 12.7978 18.0048 12.7087L35.4464 6.57861L35.7502 6.76387C35.9207 6.88541 36.0222 7.08306 36.0222 7.29251V29.5857C36.0222 29.8382 35.8735 30.0695 35.6434 30.1751C29.8673 32.846 25.9957 34.2077 18.3841 36.2444L18.1015 36.3199ZM18.7464 13.6987V34.9246C25.7916 33.0212 29.4101 31.7421 34.8416 29.2446V8.04181L18.7464 13.6987ZM35.149 29.1036C35.149 29.1036 35.1478 29.1036 35.1466 29.1036C35.1478 29.1036 35.1484 29.1036 35.149 29.1036ZM18.4001 13.8209L18.3912 13.8238C18.3912 13.8238 18.3971 13.822 18.4001 13.8209Z" fill="white"/>
<path d="M35.2376 7.80806L18.2845 1.25493L0.798701 7.79508L0.384521 6.69001L18.2727 0L18.5247 0.0826L35.6624 6.70771L35.2376 7.80806Z" fill="white"/>
<path d="M1.07716 30.4042L0.677734 29.2944L18.1653 22.9873L18.4055 23.0605L35.2305 28.8956L34.8435 30.0095L18.1878 24.2334L1.07716 30.4042Z" fill="white"/>
<path d="M18.3199 30.6975L18.0757 30.6237L8.66459 27.3557C8.41089 27.2649 8.24215 27.0377 8.22976 26.7746C7.87163 20.5206 7.87104 16.7186 8.22976 9.82918C8.24215 9.56841 8.41148 9.34008 8.65987 9.25099L17.7075 6.16352V0.853516H18.8875V6.17355L27.259 9.25217C27.5027 9.3389 27.6703 9.56723 27.6838 9.83037C27.9234 16.9039 27.9234 20.7011 27.6838 26.7687C27.6714 27.0354 27.5051 27.2625 27.2602 27.3528L18.3199 30.6975ZM9.38793 26.358L18.2898 29.4496L26.518 26.3704C26.741 20.5772 26.7404 16.9841 26.5156 10.2357L18.2893 7.21018L9.3897 10.2475C9.05812 16.7351 9.05812 20.4651 9.38793 26.358ZM9.40681 26.7032C9.40681 26.7032 9.40681 26.7091 9.40681 26.712C9.40681 26.7091 9.40681 26.7061 9.40681 26.7032ZM26.8472 10.3584C26.8472 10.3584 26.8525 10.3602 26.8555 10.3614L26.8472 10.3584ZM9.4074 9.88819C9.4074 9.88819 9.4074 9.89113 9.4074 9.8929C9.4074 9.89113 9.4074 9.88937 9.4074 9.88819Z" fill="white"/>
<path d="M19.2595 37.0575C17.5072 36.6716 5.62285 32.092 0.496338 29.9887L18.066 35.6409C23.3818 33.757 34.5175 29.9096 35.5583 29.5975C35.9117 29.4913 36.2326 29.7037 38.4369 30.4241C39.6216 30.8111 34.1482 32.3404 32.9216 33.0413C31.695 33.7423 27.123 35.2875 24.7353 36.1111C22.5246 36.8734 21.4502 37.5401 19.2595 37.0581V37.0575Z" fill="white"/>
</g>
<defs>
<clipPath id="clip0_31_1401">
<rect width="38.6019" height="37.2201" fill="white"/>
</clipPath>
</defs>
</svg>
