<svg width="453" height="226" viewBox="0 0 453 226" fill="none" xmlns="http://www.w3.org/2000/svg">
<path d="M51 57L186 165" stroke="#9D4EED" stroke-width="5" stroke-linecap="round"/>
<path d="M51 57L213 41" stroke="#9D4EED" stroke-width="5" stroke-linecap="round"/>
<path d="M352 108L403 21" stroke="#9D4EED" stroke-width="5" stroke-linecap="round"/>
<path d="M353 108L213 41" stroke="#9D4EED" stroke-width="5" stroke-linecap="round"/>
<path d="M186 169L403 19" stroke="#9D4EED" stroke-width="5" stroke-linecap="round"/>
<rect y="4" width="101" height="114" rx="10" fill="#0E0E0E" fill-opacity="0.75"/>
<rect x="11" y="14" width="80" height="3" rx="1.5" fill="white"/>
<rect x="11" y="22" width="80" height="3" rx="1.5" fill="white"/>
<rect x="11" y="30" width="80" height="3" rx="1.5" fill="white"/>
<rect x="11" y="38" width="80" height="3" rx="1.5" fill="white"/>
<rect x="11" y="46" width="80" height="3" rx="1.5" fill="white"/>
<rect x="11" y="54" width="80" height="3" rx="1.5" fill="white"/>
<rect x="11" y="62" width="80" height="3" rx="1.5" fill="white"/>
<rect x="11" y="70" width="80" height="3" rx="1.5" fill="white"/>
<rect x="11" y="78" width="80" height="3" rx="1.5" fill="white"/>
<rect x="11" y="86" width="80" height="3" rx="1.5" fill="white"/>
<rect x="11" y="94" width="47" height="3" rx="1.5" fill="white"/>
<rect x="135" y="112" width="101" height="114" rx="10" fill="#0E0E0E" fill-opacity="0.75"/>
<rect x="146" y="122" width="80" height="3" rx="1.5" fill="white"/>
<rect x="146" y="130" width="80" height="3" rx="1.5" fill="white"/>
<rect x="146" y="138" width="80" height="3" rx="1.5" fill="white"/>
<rect x="146" y="146" width="80" height="3" rx="1.5" fill="white"/>
<rect x="146" y="154" width="80" height="3" rx="1.5" fill="white"/>
<rect x="146" y="162" width="80" height="3" rx="1.5" fill="white"/>
<rect x="146" y="170" width="80" height="3" rx="1.5" fill="white"/>
<rect x="146" y="178" width="80" height="3" rx="1.5" fill="white"/>
<rect x="146" y="186" width="80" height="3" rx="1.5" fill="white"/>
<rect x="146" y="194" width="80" height="3" rx="1.5" fill="white"/>
<rect x="146" y="202" width="47" height="3" rx="1.5" fill="white"/>
<rect x="162" y="21" width="101" height="42" rx="10" fill="#0E0E0E" fill-opacity="0.75"/>
<rect x="173" y="31" width="80" height="3" rx="1.5" fill="white"/>
<rect x="173" y="39" width="80" height="3" rx="1.5" fill="white"/>
<rect x="173" y="47" width="47" height="3" rx="1.5" fill="white"/>
<rect x="302" y="89" width="101" height="42" rx="10" fill="#0E0E0E" fill-opacity="0.75"/>
<rect x="313" y="99" width="80" height="3" rx="1.5" fill="white"/>
<rect x="313" y="107" width="80" height="3" rx="1.5" fill="white"/>
<rect x="313" y="115" width="47" height="3" rx="1.5" fill="white"/>
<rect x="352" width="101" height="42" rx="10" fill="#0E0E0E" fill-opacity="0.75"/>
<rect x="363" y="10" width="80" height="3" rx="1.5" fill="white"/>
<rect x="363" y="18" width="80" height="3" rx="1.5" fill="white"/>
<rect x="363" y="26" width="47" height="3" rx="1.5" fill="white"/>
</svg>
