<svg width="33" height="33" viewBox="0 0 33 33" fill="none" xmlns="http://www.w3.org/2000/svg">
<path fill-rule="evenodd" clip-rule="evenodd" d="M12.2507 20.056C9.77418 22.5083 8.92927 23.7605 8.89446 23.8128L10.2818 24.8917C10.2898 24.8791 11.1237 23.6506 13.5182 21.2786C14.4399 20.365 15.0655 19.8328 15.619 19.3637L15.6247 19.3589C16.053 18.9945 16.4394 18.6658 16.8768 18.2305C19.5592 20.3371 23.3075 23.6204 23.3531 23.6609L24.4301 22.4581C24.4286 22.4568 24.4229 22.4518 24.4132 22.4434C24.1352 22.2004 20.5733 19.0879 17.9652 17.0364C18.1782 16.7831 18.4084 16.4995 18.6606 16.178C20.8402 13.4004 23.9239 10.4868 23.9551 10.458L22.7031 9.21851C22.7024 9.2192 22.7 9.22149 22.696 9.22532C22.5267 9.38621 19.4879 12.2745 17.3161 15.042C17.0368 15.3977 16.7874 15.7037 16.5594 15.972C16.477 15.9131 16.3975 15.857 16.3211 15.8042C14.8319 14.7748 14.3599 14.2746 13.7082 13.584L13.706 13.5817L13.6987 13.5739C13.2892 13.1389 12.8279 12.6488 12.0109 11.9161C9.90548 10.0268 8.87978 9.4139 8.82925 9.38371L8.82866 9.38335L7.83752 10.6476C7.8476 10.6534 8.86646 11.2629 10.9289 13.1144C11.7134 13.8166 12.1718 14.3025 12.5711 14.7257L12.5909 14.7467L12.5962 14.7522C13.2444 15.4394 13.7591 15.9851 15.2944 17.0461C15.3465 17.0821 15.4001 17.1196 15.455 17.1585C15.1046 17.4959 14.7776 17.774 14.4094 18.0872L14.4033 18.0924C13.8373 18.5726 13.1968 19.1171 12.2507 20.056Z" fill="white"/>
</svg>
