<svg width="45" height="45" viewBox="0 0 45 45" fill="none" xmlns="http://www.w3.org/2000/svg">
<path d="M12.0805 32.4277C12.1316 32.3597 13.3683 30.7297 16.6821 27.3277C17.9486 26.0257 18.7828 25.2471 19.5197 24.5603C20.696 23.4621 21.546 22.6696 23.4597 20.3713C26.5964 16.6033 30.7518 12.4602 30.793 12.4186L31.8354 13.4991C31.7942 13.5395 27.7035 17.6176 24.629 21.3112C22.6341 23.7079 21.6984 24.5805 20.5145 25.6859C19.7941 26.357 18.9792 27.1179 17.7457 28.385C14.5413 31.6754 13.3227 33.2758 13.3108 33.2921L12.0805 32.4277Z" fill="white"/>
<path d="M11.3646 13.7721L12.2621 12.5492C12.3172 12.5868 13.6485 13.4926 16.5279 16.0842C17.647 17.0911 18.2922 17.7445 18.8667 18.3255C19.7779 19.2456 20.4361 19.9107 22.4017 21.3902C25.6129 23.8076 33.237 30.557 33.3138 30.6245L32.3026 31.7598C32.2268 31.6921 24.6348 24.9718 21.4579 22.5804C19.4281 21.053 18.7111 20.3274 17.8028 19.41C17.2388 18.8405 16.5955 18.1888 15.5099 17.2134C12.7011 14.6847 11.3776 13.7808 11.3646 13.7721Z" fill="white"/>
</svg>
