<svg width="33" height="33" viewBox="0 0 33 33" fill="none" xmlns="http://www.w3.org/2000/svg">
<path d="M13.0946 22.6192C13.1258 22.5708 13.884 21.4132 16.1583 19.1814C17.0271 18.3267 17.6192 17.835 18.1424 17.4015C18.9772 16.7078 19.5808 16.2075 20.8104 14.618C22.8254 12.0118 25.7082 9.32389 25.7367 9.2968L26.9925 10.5321C26.9639 10.5581 24.1258 13.2038 22.1507 15.7586C20.8693 17.4163 20.2049 17.9672 19.3648 18.6655C18.8531 19.089 18.2748 19.5696 17.4284 20.4011C15.2294 22.56 14.4808 23.6955 14.4737 23.7072L13.0946 22.6192Z" fill="#9D4EED"/>
<path d="M6.04277 17.5375L7.07601 16.3114C7.10058 16.3206 7.69561 16.5406 8.76447 17.4906C9.18004 17.8595 9.3945 18.1268 9.58568 18.3643C9.8895 18.7398 10.1087 19.0115 10.9383 19.4429C12.2933 20.1478 15.1624 22.5787 15.1914 22.6029L14.1109 23.8024C14.0826 23.7778 11.2254 21.3577 9.88475 20.6604C9.02801 20.2152 8.78953 19.9185 8.48678 19.544C8.29877 19.3115 8.08501 19.0448 7.68147 18.6879C6.63902 17.7607 6.04864 17.5395 6.04277 17.5375Z" fill="#9D4EED"/>
<rect x="1" y="1" width="31" height="31" rx="15.5" stroke="#9D4EED" stroke-width="2"/>
</svg>
