<svg width="30" height="30" viewBox="0 0 30 30" fill="none" xmlns="http://www.w3.org/2000/svg">
<path d="M13.3287 29.8314C13.3005 29.8314 13.2741 29.8314 13.2459 29.8314C12.2725 29.8131 11.5112 29.4706 11.5469 29.0683C12.5041 17.9879 12.5614 17.3248 11.5102 0.741951C11.4842 0.338844 12.2531 0.0065724 13.2259 0L13.2541 0C14.2147 0 15.0089 0.319857 15.0348 0.718582C16.0889 17.3467 16.0316 18.012 15.0703 29.1354C15.0378 29.5269 14.2647 29.8314 13.3287 29.8314Z" fill="#9D4EED"/>
<path d="M29.8902 14.6405C29.8913 14.6687 29.8924 14.6951 29.8935 14.7233C29.9138 15.6966 29.6018 16.4708 29.1983 16.4511C18.0887 15.9338 17.4239 15.9028 0.895683 17.6104C0.493923 17.6523 0.131439 16.8972 0.086321 15.9254L0.0852032 15.8972C0.0471348 14.9374 0.335269 14.1312 0.732655 14.0895C17.306 12.3772 17.973 12.4081 29.1258 12.9279C29.5182 12.9448 29.8531 13.7053 29.8902 14.6405Z" fill="#9D4EED"/>
</svg>
