<svg width="31" height="27" viewBox="0 0 31 27" fill="none" xmlns="http://www.w3.org/2000/svg">
<path d="M30.4027 2.8312C30.4027 2.8594 30.4027 2.88584 30.4027 2.91404C30.3844 3.88746 30.0419 4.64869 29.6395 4.61297C18.5592 3.65585 17.8961 3.59848 1.31324 4.64975C0.910133 4.67575 0.577861 3.9068 0.571289 2.93401V2.9058C0.571289 1.94519 0.891146 1.15103 1.28987 1.12515C17.918 0.0709785 18.5833 0.128293 29.7067 1.08962C30.0982 1.12209 30.4027 1.89526 30.4027 2.8312Z" fill="#9D4EED"/>
<path d="M0.571693 12.8597C0.571693 12.8315 0.571693 12.8051 0.571693 12.7769C0.58995 11.8035 0.932446 11.0422 1.33482 11.0779C12.4152 12.0351 13.0782 12.0924 29.6611 11.0412C30.0642 11.0152 30.3965 11.7841 30.4031 12.7569V12.7851C30.4031 13.7457 30.0832 14.5399 29.6845 14.5658C13.0563 15.6199 12.3911 15.5626 1.26764 14.6013C0.876214 14.5688 0.571693 13.7957 0.571693 12.8597Z" fill="#9D4EED"/>
<path d="M30.4029 23.5219C30.4029 23.5501 30.4029 23.5765 30.4029 23.6047C30.3847 24.5781 30.0422 25.3394 29.6398 25.3036C18.5595 24.3465 17.8964 24.2892 1.31348 25.3404C0.910377 25.3664 0.578106 24.5975 0.571533 23.6247V23.5965C0.571533 22.6359 0.89139 21.8417 1.29012 21.8158C17.9183 20.7617 18.5836 20.819 29.707 21.7803C30.0984 21.8128 30.4029 22.5859 30.4029 23.5219Z" fill="#9D4EED"/>
</svg>
