<svg width="35" height="34" viewBox="0 0 35 34" fill="none" xmlns="http://www.w3.org/2000/svg">
<g clip-path="url(#clip0_29_1337)">
<g clip-path="url(#clip1_29_1337)">
<path d="M14.1919 18.7713C14.3133 19.0964 14.061 19.218 13.8288 19.3333C13.5333 19.4795 13.1854 19.551 12.9343 19.7491C12.5332 20.066 12.0346 20.1611 11.6209 20.4286C11.408 20.5658 11.2359 20.765 11.0302 20.9161C10.8853 21.022 10.7143 21.0931 10.5554 21.181C10.5002 21.2118 10.4437 21.2414 10.3954 21.2812C10.3678 21.3038 10.3653 21.3649 10.3374 21.377C9.74488 21.6318 10.0284 22.1973 9.90403 22.6149C9.80494 22.9491 9.74946 23.2977 9.69237 23.6435C9.676 23.7405 9.73154 23.8469 9.73874 23.9504C9.74557 24.0466 9.76612 24.2052 9.71988 24.2321C9.32547 24.4613 9.3655 24.9036 9.20915 25.2442C8.99985 25.6995 8.83422 26.1747 8.64729 26.6409C8.61911 26.7117 8.55462 26.7732 8.5446 26.8442C8.46846 27.409 8.06351 27.7946 7.75541 28.2172C7.53909 28.5136 7.1829 28.7105 6.8828 28.9426C6.83842 28.9772 6.75133 28.9826 6.69197 28.9678C6.51978 28.9252 6.42697 29.0003 6.34374 29.1415C6.29798 29.2185 6.21895 29.307 6.13893 29.327C5.43542 29.5012 4.40326 29.5446 3.83066 28.8512C3.61847 28.5938 3.5245 28.2295 3.40907 27.9028C3.17786 27.2479 3.60777 26.7629 3.86917 26.2363C4.22614 25.5181 4.82125 24.9858 5.31098 24.3698C5.49746 24.1358 5.61609 23.8458 5.75318 23.5751C5.78449 23.5132 5.78557 23.42 5.76736 23.3507C5.54029 22.4963 5.57684 21.6202 5.5491 20.75C5.54557 20.6476 5.56674 20.5361 5.60972 20.4433C5.82751 19.9658 5.99521 19.4657 6.50279 19.171C6.8237 18.9842 7.06647 18.6665 7.38105 18.4653C7.6495 18.2935 7.9744 18.2132 8.26544 18.0745C8.48635 17.9688 8.6992 17.8435 8.90536 17.7107C9.32581 17.4388 9.77902 17.2004 10.1449 16.8675C10.6436 16.4149 11.069 15.8827 11.5345 15.3925C11.6864 15.2321 11.6625 15.0971 11.5439 14.9377C11.4362 14.7931 11.3397 14.6397 11.2428 14.4878C10.9577 14.04 11.0863 13.5585 11.1696 13.0971C11.2281 12.7723 11.2027 12.4062 11.491 12.1423C11.5346 12.102 11.4919 11.9229 11.4426 11.8341C11.1547 11.3189 10.9304 10.7887 10.9687 10.1825C10.9804 10.0018 10.8883 9.98517 10.7303 9.95438C9.79509 9.76921 8.86876 9.97253 7.93891 9.97828C7.64663 9.98031 7.35024 9.93681 7.06265 9.88146C6.84649 9.84022 6.7448 9.36278 6.91614 9.21253C7.00608 9.13343 7.13352 9.09953 7.23596 9.03259C7.39057 8.93165 7.53762 8.8207 7.68722 8.71204C7.7555 8.66266 7.81561 8.58248 7.8906 8.56348C8.6188 8.38017 9.34515 8.18921 10.0801 8.04184C10.3227 7.99284 10.5898 8.0592 10.8452 8.0819C11.0679 8.10197 11.1946 8.03059 11.2519 7.79349C11.357 7.35947 11.4911 6.93263 11.6213 6.50551C11.6483 6.41622 11.6953 6.32294 11.7601 6.25753C12.0093 6.00584 11.999 5.68908 12.0131 5.3727C12.024 5.1371 11.8662 5.03345 11.6956 4.9421C11.0566 4.60221 10.4155 4.26728 9.77521 3.92939C9.24426 3.64934 8.72246 3.3504 8.18052 3.09586C7.9278 2.97718 7.63813 2.92364 7.35916 2.88018C7.11364 2.84196 7.02942 2.70146 7.03774 2.48972C7.04619 2.28039 7.09927 2.07304 7.36868 2.07344C7.64198 2.07412 7.91743 2.13326 8.18649 2.10899C8.82868 2.05104 9.43127 2.24934 10.0446 2.3626C11.235 2.58233 12.3857 2.90051 13.2868 3.79449C13.6136 4.11906 13.6104 4.05316 14.0141 3.8535C14.8739 3.42815 15.7588 3.05568 16.6338 2.66147C16.7097 2.62766 16.7851 2.5929 16.8947 2.543C16.5024 1.8453 16.0422 1.26207 15.2482 1.07374C14.946 1.00247 14.9821 0.813448 14.9611 0.604723C14.9367 0.364953 15.0771 0.26961 15.2667 0.231423C15.4925 0.185743 15.7143 0.146087 15.9383 0.0753318C16.164 0.00424531 16.4842 0.105046 16.72 0.219064C17.1836 0.444134 17.4921 0.855613 17.8003 1.25985C18.1519 1.72204 18.5273 2.16698 18.8838 2.62576C18.9628 2.72756 18.9912 2.86934 19.0716 2.96913C19.1537 3.07101 19.2605 3.16697 19.3765 3.22662C19.6031 3.3421 19.8513 3.41673 20.0766 3.53421C20.2312 3.6148 20.3187 4.0487 20.2132 4.19011C20.1001 4.34209 19.9542 4.45177 19.7508 4.3094C19.5534 4.17107 19.3727 4.19111 19.1724 4.33418C19.0668 4.40976 18.8978 4.45919 18.7736 4.43531C17.8306 4.2583 17.1519 4.75726 16.4848 5.29747C16.3227 5.42883 16.1494 5.54843 15.9939 5.68718C15.8706 5.79831 15.7661 5.93047 15.6536 6.0541C15.2501 6.49482 14.8396 6.92962 14.4488 7.38176C14.3407 7.50661 14.2928 7.68367 14.216 7.83613C14.0929 8.07893 13.9493 8.31289 13.8477 8.56397C13.5542 9.28782 13.6524 10.0172 13.8504 10.7439C13.9528 11.1208 14.0628 11.4959 14.162 11.8728C14.3202 12.4736 14.6771 12.9222 15.1871 13.2639C15.6209 13.5544 16.025 13.8979 16.4832 14.1397C17.2783 14.5606 18.1361 14.8164 19.033 14.9364C19.1698 14.955 19.3106 15.0135 19.4279 15.0886C19.94 15.4142 20.4737 15.3558 20.9864 15.1433C21.9703 14.7362 22.7991 14.0954 23.515 13.3142C23.9637 12.8241 24.2893 12.2748 24.3375 11.5722C24.3829 10.9117 24.6415 10.2686 24.5095 9.59019C24.4458 9.26272 24.4006 8.9316 24.3335 8.60479C24.2544 8.21521 24.524 7.90967 24.8919 7.79687C25.3351 7.66118 25.5578 7.86594 25.8786 8.11193C26.1915 8.35182 26.6438 8.46518 27.05 8.5159C28.109 8.64872 29.0336 9.11159 29.9592 9.58505C30.2302 9.72382 30.4605 9.89501 30.3837 10.275C30.3582 10.3995 30.4054 10.5766 30.4853 10.6779C30.6522 10.8895 30.6214 11.1339 30.5035 11.283C30.3952 11.4204 30.1228 11.5373 29.9613 11.4992C29.6443 11.4239 29.3381 11.2604 29.0552 11.0874C28.6097 10.8135 28.205 10.4579 27.623 10.5562C27.4419 10.5865 27.3373 10.6671 27.2381 10.8403C27.0191 11.224 26.861 11.603 26.9388 12.0549C26.9517 12.129 26.8918 12.2171 26.8619 12.2969C26.7595 12.5684 26.6482 12.8374 26.5566 13.1126C26.5392 13.1641 26.5813 13.2534 26.6213 13.304C26.9491 13.7145 27.2657 14.1369 27.6219 14.5219C27.8456 14.7633 28.1178 14.9667 28.392 15.1515C28.7116 15.3671 29.0707 15.5253 29.3852 15.7482C29.5371 15.8558 29.6628 16.0386 29.7324 16.2147C29.8662 16.5496 29.9605 16.9013 30.0556 17.2501C30.1206 17.4892 30.098 17.7097 29.8235 17.8197C29.7977 17.83 29.7737 17.848 29.752 17.8666C29.1826 18.3599 28.5098 18.2469 28.0957 17.617C27.8676 17.2704 27.6253 16.9152 27.3193 16.6415C26.8831 16.2504 26.3847 15.927 25.9085 15.5804C25.7323 15.4518 25.5424 15.3409 25.3623 15.2176C25.2022 15.1078 25.0681 15.1026 24.9544 15.2854C24.771 15.5805 24.4899 15.7378 24.179 15.8853C23.7679 16.0798 23.3891 16.3418 22.9955 16.5736C22.862 16.6526 22.8764 16.7445 22.9103 16.8863C23.0692 17.5475 23.2567 18.2087 23.3301 18.8813C23.3883 19.4157 23.0921 19.6426 22.5473 19.6607C22.296 19.6693 22.0457 19.7003 21.7943 19.712C21.5502 19.7233 21.3621 19.5083 21.3753 19.2527C21.3781 19.1995 21.3771 19.1224 21.3444 19.0943C21.0487 18.841 21.2104 18.593 21.3121 18.3157C21.3826 18.1227 21.3876 17.8886 21.3591 17.681C21.3332 17.49 21.1646 17.4919 20.9948 17.5356C20.4354 17.6789 19.8746 17.8211 19.311 17.9451C18.7423 18.07 18.1757 17.9831 17.6158 17.8687C17.4266 17.8301 17.2847 17.8648 17.1111 17.9685C16.4798 18.3473 15.8057 18.5153 15.0728 18.2606C14.9889 18.2312 14.8547 18.2751 14.7717 18.3291C14.5808 18.4526 14.4072 18.6022 14.1917 18.7689L14.1919 18.7713ZM7.21001 27.5344C7.21747 27.4929 7.2242 27.4512 7.23167 27.4096C6.25998 27.3024 5.46354 27.0048 5.48086 25.8585C4.90222 26.037 4.6711 26.7186 5.05566 27.1129C5.40545 27.4723 5.8165 27.7733 6.21305 28.0838C6.27568 28.1327 6.43206 28.1377 6.49745 28.0931C6.74566 27.9227 6.97416 27.7232 7.20907 27.535L7.21001 27.5344ZM6.94086 24.07C6.86287 24.2641 6.70279 24.5031 6.68319 24.7529C6.65842 25.0648 6.94174 25.2307 7.19697 25.3374C7.79208 25.586 8.23779 25.3202 8.41986 24.6901C7.93237 24.4855 7.45259 24.2845 6.94012 24.0698L6.94086 24.07ZM7.16219 21.5974C7.52161 21.9333 8.51836 22.3153 8.94832 22.2854C9.01295 22.281 9.106 22.2194 9.12906 22.1615C9.17618 22.0421 9.18473 21.9073 9.21172 21.7689C8.27337 21.6788 7.618 21.0989 6.92055 20.5741C6.99276 20.7755 7.05657 20.9872 7.19247 21.1301C7.364 21.3104 7.39026 21.4397 7.16293 21.5976L7.16219 21.5974Z" fill="white"/>
<path d="M19.7546 7.65172C20.7423 8.02892 21.221 8.92558 21.1669 9.89129C21.1576 10.052 21.1595 10.215 21.175 10.3747C21.2843 11.5248 20.0599 12.2494 19.1349 12.0187C18.6475 11.8973 18.1547 11.7982 17.6396 11.8871C17.4607 11.9179 17.2485 11.8794 17.0808 11.8063C16.9514 11.7493 16.8166 11.6052 16.7727 11.471C16.6636 11.1414 16.6259 10.7885 16.5223 10.4564C16.3589 9.9295 16.644 9.0892 17.2106 8.73854C17.2964 8.68604 17.3956 8.61346 17.4305 8.52713C17.6698 7.93663 18.1707 7.72405 18.7363 7.64742C19.0691 7.60185 19.414 7.6476 19.7536 7.65225L19.7546 7.65172Z" fill="white"/>
</g>
</g>
<defs>
<clipPath id="clip0_29_1337">
<rect width="34.5196" height="33.2839" fill="white" transform="translate(0 0.206909)"/>
</clipPath>
<clipPath id="clip1_29_1337">
<rect width="26.2356" height="31.3305" fill="white" transform="translate(8.28467 -2.13611) rotate(15.3837)"/>
</clipPath>
</defs>
</svg>
